<svg xmlns="http://www.w3.org/2000/svg" xmlns:xlink="http://www.w3.org/1999/xlink" width="1080" zoomAndPan="magnify" viewBox="0 0 810 699.000001" height="932" preserveAspectRatio="xMidYMid meet" version="1.0"><defs><filter x="0%" y="0%" width="100%" height="100%" id="ebf407c8d7"><feColorMatrix values="0 0 0 0 1 0 0 0 0 1 0 0 0 0 1 0 0 0 1 0" color-interpolation-filters="sRGB"/></filter><clipPath id="fe7eb5f65f"><path d="M 0.578125 0 L 809.421875 0 L 809.421875 698 L 0.578125 698 Z M 0.578125 0 " clip-rule="nonzero"/></clipPath><clipPath id="1394a720ba"><path d="M 25.777344 586.265625 L 784.957031 586.265625 L 784.957031 665.632812 L 25.777344 665.632812 Z M 25.777344 586.265625 " clip-rule="nonzero"/></clipPath><mask id="b5465a8a90"><g filter="url(#ebf407c8d7)"><rect x="-81" width="972" fill="#000000" y="-69.9" height="838.800001" fill-opacity="0.4"/></g></mask><clipPath id="695bb64847"><path d="M 0.777344 0.265625 L 759.957031 0.265625 L 759.957031 79.632812 L 0.777344 79.632812 Z M 0.777344 0.265625 " clip-rule="nonzero"/></clipPath><clipPath id="bb9daa69c2"><rect x="0" width="760" y="0" height="80"/></clipPath><clipPath id="3da80066e7"><path d="M 25.746094 427.6875 L 785.054688 427.6875 L 785.054688 507.140625 L 25.746094 507.140625 Z M 25.746094 427.6875 " clip-rule="nonzero"/></clipPath><mask id="36729ab71a"><g filter="url(#ebf407c8d7)"><rect x="-81" width="972" fill="#000000" y="-69.9" height="838.800001" fill-opacity="0.4"/></g></mask><clipPath id="ac342c7c32"><path d="M 0.746094 0.6875 L 760.054688 0.6875 L 760.054688 80.140625 L 0.746094 80.140625 Z M 0.746094 0.6875 " clip-rule="nonzero"/></clipPath><clipPath id="eca241e5f2"><rect x="0" width="761" y="0" height="81"/></clipPath><clipPath id="182890969e"><path d="M 25.71875 269.105469 L 785.152344 269.105469 L 785.152344 348.640625 L 25.71875 348.640625 Z M 25.71875 269.105469 " clip-rule="nonzero"/></clipPath><mask id="769e19c3b3"><g filter="url(#ebf407c8d7)"><rect x="-81" width="972" fill="#000000" y="-69.9" height="838.800001" fill-opacity="0.4"/></g></mask><clipPath id="9234513b77"><path d="M 0.71875 0.105469 L 760.152344 0.105469 L 760.152344 79.640625 L 0.71875 79.640625 Z M 0.71875 0.105469 " clip-rule="nonzero"/></clipPath><clipPath id="9c3ea210f2"><rect x="0" width="761" y="0" height="80"/></clipPath><clipPath id="4a73c2ec9f"><path d="M 25.691406 110.53125 L 785.257812 110.53125 L 785.257812 190.15625 L 25.691406 190.15625 Z M 25.691406 110.53125 " clip-rule="nonzero"/></clipPath><mask id="af59dc7e88"><g filter="url(#ebf407c8d7)"><rect x="-81" width="972" fill="#000000" y="-69.9" height="838.800001" fill-opacity="0.4"/></g></mask><clipPath id="01250501df"><path d="M 0.691406 0.53125 L 760.257812 0.53125 L 760.257812 80.15625 L 0.691406 80.15625 Z M 0.691406 0.53125 " clip-rule="nonzero"/></clipPath><clipPath id="916c7b4347"><rect x="0" width="761" y="0" height="81"/></clipPath><clipPath id="2c7db60e56"><path d="M 25 31 L 786 31 L 786 698 L 25 698 Z M 25 31 " clip-rule="nonzero"/></clipPath><clipPath id="4e761cdee5"><path d="M 23 29 L 788 29 L 788 698 L 23 698 Z M 23 29 " clip-rule="nonzero"/></clipPath></defs><g clip-path="url(#fe7eb5f65f)"><path fill="#ffffff" d="M 0.578125 0 L 809.421875 0 L 809.421875 698 L 0.578125 698 Z M 0.578125 0 " fill-opacity="1" fill-rule="nonzero"/><path fill="#ffffff" d="M 0.578125 0 L 809.421875 0 L 809.421875 698 L 0.578125 698 Z M 0.578125 0 " fill-opacity="1" fill-rule="nonzero"/><path fill="#87b540" d="M 0.488281 1013.820312 L 0.488281 0.125 L 810.496094 0.125 L 810.496094 1013.820312 Z M 0.488281 1013.820312 " fill-opacity="1" fill-rule="nonzero"/></g><g clip-path="url(#1394a720ba)"><g mask="url(#b5465a8a90)"><g transform="matrix(1, 0, 0, 1, 25, 586)"><g clip-path="url(#bb9daa69c2)"><g clip-path="url(#695bb64847)"><path fill="#e8efdb" d="M 759.957031 0.269531 L 0.777344 0.394531 L 0.789062 79.632812 L 759.890625 79.5625 Z M 759.957031 0.269531 " fill-opacity="1" fill-rule="nonzero"/></g></g></g></g></g><g clip-path="url(#3da80066e7)"><g mask="url(#36729ab71a)"><g transform="matrix(1, 0, 0, 1, 25, 427)"><g clip-path="url(#eca241e5f2)"><g clip-path="url(#ac342c7c32)"><path fill="#e8efdb" d="M 760.054688 0.6875 L 0.746094 0.894531 L 0.761719 80.140625 L 759.996094 79.976562 Z M 760.054688 0.6875 " fill-opacity="1" fill-rule="nonzero"/></g></g></g></g></g><g clip-path="url(#182890969e)"><g mask="url(#769e19c3b3)"><g transform="matrix(1, 0, 0, 1, 25, 269)"><g clip-path="url(#9c3ea210f2)"><g clip-path="url(#9234513b77)"><path fill="#e8efdb" d="M 760.152344 0.101562 L 0.71875 0.394531 L 0.734375 79.636719 L 760.101562 79.394531 Z M 760.152344 0.101562 " fill-opacity="1" fill-rule="nonzero"/></g></g></g></g></g><g clip-path="url(#4a73c2ec9f)"><g mask="url(#af59dc7e88)"><g transform="matrix(1, 0, 0, 1, 25, 110)"><g clip-path="url(#916c7b4347)"><g clip-path="url(#01250501df)"><path fill="#e8efdb" d="M 760.257812 0.53125 L 0.691406 0.90625 L 0.707031 80.15625 L 760.203125 79.820312 Z M 760.257812 0.53125 " fill-opacity="1" fill-rule="nonzero"/></g></g></g></g></g><g clip-path="url(#2c7db60e56)"><path fill="#c3d79f" d="M 785.105469 348.398438 L 25.734375 348.640625 L 25.746094 427.894531 L 785.058594 427.6875 Z M 785.203125 189.820312 L 25.710938 190.15625 L 25.722656 269.398438 L 785.152344 269.105469 Z M 785 506.976562 L 25.765625 507.140625 L 25.777344 586.394531 L 784.957031 586.269531 Z M 785.3125 31.246094 L 25.6875 31.664062 L 25.691406 110.910156 L 785.257812 110.53125 Z M 784.796875 824.136719 L 25.820312 824.136719 L 25.835938 903.371094 L 784.746094 903.414062 Z M 784.894531 665.5625 L 25.792969 665.636719 L 25.800781 744.878906 L 784.847656 744.839844 Z M 784.894531 665.5625 " fill-opacity="1" fill-rule="nonzero"/></g><g clip-path="url(#4e761cdee5)"><path fill="#ffffff" d="M 25.675781 33.371094 L 785.300781 33.371094 C 784.59375 32.660156 783.886719 31.953125 783.175781 31.246094 L 783.175781 982.695312 C 783.886719 981.988281 784.59375 981.277344 785.300781 980.570312 L 25.675781 980.570312 L 27.796875 982.695312 L 27.796875 31.246094 C 27.796875 28.503906 23.550781 28.503906 23.550781 31.246094 L 23.550781 982.695312 C 23.550781 983.851562 24.515625 984.820312 25.675781 984.820312 L 785.300781 984.820312 C 786.460938 984.820312 787.425781 983.851562 787.425781 982.695312 L 787.425781 31.246094 C 787.425781 30.085938 786.460938 29.121094 785.300781 29.121094 L 25.675781 29.121094 C 22.933594 29.121094 22.933594 33.371094 25.675781 33.371094 " fill-opacity="1" fill-rule="nonzero"/></g><path fill="#ffffff" d="M 25.675781 509.09375 L 785.300781 509.09375 C 788.042969 509.09375 788.042969 504.84375 785.300781 504.84375 L 25.675781 504.84375 C 22.933594 504.84375 22.933594 509.09375 25.675781 509.09375 " fill-opacity="1" fill-rule="nonzero"/><path fill="#ffffff" d="M 41.363281 31.277344 L 41.363281 31.246094 C 41.363281 30.085938 40.398438 29.121094 39.238281 29.121094 L 25.675781 29.121094 C 24.515625 29.121094 23.550781 30.085938 23.550781 31.246094 L 23.550781 44.851562 C 23.550781 45.988281 24.515625 47.007812 25.675781 46.976562 C 34.386719 46.742188 41.125 39.988281 41.363281 31.277344 C 41.4375 28.535156 37.1875 28.542969 37.113281 31.277344 C 36.941406 37.644531 32.046875 42.554688 25.675781 42.726562 C 26.382812 43.433594 27.089844 44.144531 27.800781 44.851562 L 27.800781 31.246094 C 27.089844 31.953125 26.382812 32.660156 25.675781 33.371094 L 39.238281 33.371094 C 38.527344 32.660156 37.820312 31.953125 37.113281 31.246094 L 37.113281 31.277344 C 37.113281 34.019531 41.363281 34.019531 41.363281 31.277344 " fill-opacity="1" fill-rule="nonzero"/><path fill="#ffffff" d="M 769.605469 31.246094 C 769.605469 39.96875 776.738281 46.746094 785.300781 46.976562 C 786.457031 47.007812 787.425781 45.984375 787.425781 44.851562 L 787.425781 31.246094 C 787.425781 30.085938 786.457031 29.117188 785.300781 29.117188 L 771.730469 29.117188 C 768.988281 29.117188 768.988281 33.371094 771.730469 33.371094 L 785.300781 33.371094 C 784.59375 32.660156 783.882812 31.953125 783.175781 31.246094 L 783.175781 44.851562 C 783.882812 44.140625 784.59375 43.433594 785.300781 42.722656 C 779.035156 42.554688 773.855469 37.628906 773.855469 31.246094 C 773.855469 28.503906 769.605469 28.503906 769.605469 31.246094 " fill-opacity="1" fill-rule="nonzero"/><path fill="#ffffff" d="M 405.488281 502.449219 C 407.984375 502.449219 410.007812 504.472656 410.007812 506.96875 C 410.007812 509.472656 407.984375 511.492188 405.488281 511.492188 C 402.988281 511.492188 400.964844 509.472656 400.964844 506.96875 C 400.964844 504.472656 402.988281 502.449219 405.488281 502.449219 " fill-opacity="1" fill-rule="nonzero"/><path stroke-linecap="butt" transform="matrix(0, 1.648294, 1.648121, 0, 405.486727, 502.450331)" fill="none" stroke-linejoin="miter" d="M -0.000674602 0.000943173 C -0.000674602 1.515452 1.22692 2.743176 2.74127 2.743176 C 4.260359 2.743176 5.485584 1.515452 5.485584 0.000943173 C 5.485584 -1.515936 4.260359 -2.743659 2.74127 -2.743659 C 1.22692 -2.743659 -0.000674602 -1.515936 -0.000674602 0.000943173 Z M -0.000674602 0.000943173 " stroke="#ffffff" stroke-width="1.097" stroke-opacity="1" stroke-miterlimit="4"/><path fill="#ffffff" d="M 405.488281 416.40625 C 446.1875 416.90625 481.53125 443.757812 492.804688 482.898438 C 504.132812 522.21875 485.710938 564.398438 451.1875 585.171875 C 416.0625 606.3125 370.332031 599.230469 341.457031 571.011719 C 312.164062 542.386719 307.28125 496.375 327.296875 461.265625 C 343.195312 433.375 373.746094 416.796875 405.488281 416.40625 C 408.226562 416.371094 408.230469 412.121094 405.488281 412.15625 C 370.175781 412.589844 338.292969 431.820312 321.519531 462.917969 C 304.636719 494.21875 308.144531 533.277344 328.347656 562.085938 C 348.050781 590.1875 383.523438 605.625 417.503906 601.015625 C 452.316406 596.289062 481.277344 573.160156 494.15625 540.566406 C 505.722656 511.285156 500.503906 477.359375 482.625 451.859375 C 465.074219 426.832031 435.773438 412.527344 405.488281 412.15625 C 402.746094 412.121094 402.746094 416.371094 405.488281 416.40625 " fill-opacity="1" fill-rule="nonzero"/><path fill="#ffffff" d="M 498.261719 84.832031 L 312.710938 84.832031 C 313.421875 85.539062 314.128906 86.246094 314.835938 86.957031 L 314.835938 31.246094 C 314.128906 31.953125 313.421875 32.660156 312.710938 33.371094 L 498.261719 33.371094 C 497.550781 32.660156 496.84375 31.953125 496.136719 31.246094 L 496.136719 86.957031 C 496.136719 89.699219 500.386719 89.699219 500.386719 86.957031 L 500.386719 31.246094 C 500.386719 30.085938 499.417969 29.121094 498.261719 29.121094 L 312.710938 29.121094 C 311.554688 29.121094 310.589844 30.085938 310.589844 31.246094 L 310.589844 86.957031 C 310.589844 88.113281 311.554688 89.082031 312.710938 89.082031 L 498.261719 89.082031 C 501 89.082031 501 84.832031 498.261719 84.832031 " fill-opacity="1" fill-rule="nonzero"/><path fill="#ffffff" d="M 609.675781 196.253906 L 201.296875 196.253906 C 202.007812 196.964844 202.714844 197.671875 203.421875 198.382812 L 203.421875 31.246094 C 202.714844 31.953125 202.007812 32.660156 201.296875 33.371094 L 609.675781 33.371094 C 608.964844 32.660156 608.257812 31.953125 607.546875 31.246094 L 607.546875 198.382812 C 607.546875 201.121094 611.800781 201.121094 611.800781 198.382812 L 611.800781 31.246094 C 611.800781 30.085938 610.832031 29.121094 609.675781 29.121094 L 201.296875 29.121094 C 200.140625 29.121094 199.171875 30.085938 199.171875 31.246094 L 199.171875 198.382812 C 199.171875 199.539062 200.140625 200.507812 201.296875 200.507812 L 609.675781 200.507812 C 612.414062 200.507812 612.414062 196.253906 609.675781 196.253906 " fill-opacity="1" fill-rule="nonzero"/><path fill="#ffffff" d="M 405.488281 147.191406 C 402.988281 147.191406 400.964844 145.164062 400.964844 142.667969 C 400.964844 140.171875 402.988281 138.144531 405.488281 138.144531 C 407.984375 138.144531 410.007812 140.171875 410.007812 142.667969 C 410.007812 145.164062 407.984375 147.191406 405.488281 147.191406 " fill-opacity="1" fill-rule="nonzero"/><path stroke-linecap="butt" transform="matrix(0, 1.648294, 1.648121, 0, 405.486727, 147.190179)" fill="none" stroke-linejoin="miter" d="M 0.000744456 0.000943173 C 0.000744456 -1.515936 -1.22922 -2.743659 -2.74357 -2.743659 C -4.25792 -2.743659 -5.487884 -1.515936 -5.487884 0.000943173 C -5.487884 1.515452 -4.25792 2.743176 -2.74357 2.743176 C -1.22922 2.743176 0.000744456 1.515452 0.000744456 0.000943173 Z M 0.000744456 0.000943173 " stroke="#ffffff" stroke-width="1.097" stroke-opacity="1" stroke-miterlimit="4"/><path fill="#ffffff" d="M 405.488281 237.480469 C 435.332031 237.070312 462.769531 223.515625 481.050781 199.882812 C 482.125 198.496094 481.578125 196.253906 479.546875 196.253906 L 331.421875 196.253906 C 329.394531 196.253906 328.847656 198.496094 329.921875 199.882812 C 348.203125 223.515625 375.640625 237.070312 405.488281 237.480469 C 408.230469 237.515625 408.226562 233.265625 405.488281 233.230469 C 376.660156 232.835938 350.550781 219.65625 332.929688 196.878906 C 332.425781 198.085938 331.925781 199.296875 331.421875 200.507812 L 479.546875 200.507812 C 479.046875 199.296875 478.546875 198.085938 478.046875 196.878906 C 460.421875 219.660156 434.3125 232.835938 405.488281 233.230469 C 402.746094 233.265625 402.746094 237.515625 405.488281 237.480469 " fill-opacity="1" fill-rule="nonzero"/></svg>