<?xml version="1.0" encoding="UTF-8"?>
<svg viewBox="0 0 213.11775 172.51613" xmlns="http://www.w3.org/2000/svg">
 <g transform="translate(-463.15 -20.292)">
  <path d="m520.32 22.527c-0.83684 0.02261-1.6818 0.25134-2.4605 0.70092l-49.875 28.796c-2.4918 1.4386-3.337 4.5978-1.8984 7.0896l16.99 29.432c1.4386 2.4918 4.6051 3.337 7.0969 1.8983l26.066-15.048v109.98c0 2.8773 2.3212 5.1985 5.1985 5.1985h96.29c2.8773 0 5.1912-2.3212 5.1912-5.1985v-110.13l26.336 15.201c2.4918 1.4386 5.6509 0.59347 7.0896-1.8983l16.99-29.432c1.4386-2.4918 0.59346-5.6509-1.8983-7.0896l-49.868-28.796c-1.0123-0.58445-2.1391-0.79161-3.2126-0.66442-0.20622-0.02469-0.41482-0.0365-0.62791-0.0365h-27.584c-0.40834 3.2725-9.4111 5.8922-20.436 5.8922s-20.021-2.6196-20.429-5.8922h-27.84c-0.16742 0-0.3332 0.01386-0.49649 0.0292-0.20723-0.01952-0.41129-0.03486-0.62061-0.0292z" fill="#605d66" stroke="#000" stroke-width="4.468"/>
 </g>
</svg>
